<?xml version="1.0" encoding="UTF-8"?>
<svg width="513px" height="423px" viewBox="0 0 513 423" version="1.1" xmlns="http://www.w3.org/2000/svg" xmlns:xlink="http://www.w3.org/1999/xlink">
    <!-- Generator: Sketch 52.3 (67297) - http://www.bohemiancoding.com/sketch -->
    <title>Group 18</title>
    <desc>Created with Sketch.</desc>
    <defs>
        <rect id="path-1" x="0" y="0" width="355" height="362" rx="5"></rect>
        <filter x="-6.9%" y="-6.5%" width="113.8%" height="113.5%" filterUnits="objectBoundingBox" id="filter-2">
            <feOffset dx="0" dy="1" in="SourceAlpha" result="shadowOffsetOuter1"></feOffset>
            <feGaussianBlur stdDeviation="8" in="shadowOffsetOuter1" result="shadowBlurOuter1"></feGaussianBlur>
            <feColorMatrix values="0 0 0 0 0   0 0 0 0 0   0 0 0 0 0  0 0 0 0.175894475 0" type="matrix" in="shadowBlurOuter1"></feColorMatrix>
        </filter>
        <linearGradient x1="-5.38128909%" y1="60.6582401%" x2="100%" y2="60.6582401%" id="linearGradient-3">
            <stop stop-color="#FFFFFF" offset="0%"></stop>
            <stop stop-color="#FFFFFF" stop-opacity="0" offset="100%"></stop>
        </linearGradient>
        <rect id="path-4" x="0" y="0" width="355" height="88" rx="5"></rect>
        <filter x="-2.7%" y="-9.7%" width="105.4%" height="121.6%" filterUnits="objectBoundingBox" id="filter-6">
            <feOffset dx="0" dy="1" in="SourceAlpha" result="shadowOffsetOuter1"></feOffset>
            <feGaussianBlur stdDeviation="3" in="shadowOffsetOuter1" result="shadowBlurOuter1"></feGaussianBlur>
            <feColorMatrix values="0 0 0 0 0   0 0 0 0 0   0 0 0 0 0  0 0 0 0.130095109 0" type="matrix" in="shadowBlurOuter1"></feColorMatrix>
        </filter>
        <linearGradient x1="0%" y1="0%" x2="144.005794%" y2="242.628515%" id="linearGradient-7">
            <stop stop-color="#3023AE" offset="0%"></stop>
            <stop stop-color="#C86DD7" offset="100%"></stop>
        </linearGradient>
        <linearGradient x1="-34.7159857%" y1="-28.6407925%" x2="101.999998%" y2="100.999999%" id="linearGradient-8">
            <stop stop-color="#3023AE" offset="0%"></stop>
            <stop stop-color="#C86DD7" offset="100%"></stop>
        </linearGradient>
        <filter x="-17.2%" y="-62.5%" width="134.3%" height="225.0%" filterUnits="objectBoundingBox" id="filter-9">
            <feOffset dx="0" dy="2" in="SourceAlpha" result="shadowOffsetOuter1"></feOffset>
            <feGaussianBlur stdDeviation="8" in="shadowOffsetOuter1" result="shadowBlurOuter1"></feGaussianBlur>
            <feColorMatrix values="0 0 0 0 0.359069742   0 0 0 0 0.253505231   0 0 0 0 0.5060321  0 0 0 0.608893795 0" type="matrix" in="shadowBlurOuter1" result="shadowMatrixOuter1"></feColorMatrix>
            <feMerge>
                <feMergeNode in="shadowMatrixOuter1"></feMergeNode>
                <feMergeNode in="SourceGraphic"></feMergeNode>
            </feMerge>
        </filter>
    </defs>
    <g id="Page-1" stroke="none" stroke-width="1" fill="none" fill-rule="evenodd">
        <g id="Group-18" transform="translate(0.000000, -77.000000)">
            <circle id="Oval" fill="#FCFCFC" cx="152" cy="286" r="152"></circle>
            <path d="M387.735867,78.3033893 L470.743331,135.3571 C491.467504,149.601493 500.154876,175.913815 491.986217,199.697572 L461.577558,288.235006 C453.808572,310.855079 432.531355,326.044495 408.614314,326.044495 L303.416704,326.044495 C279.499663,326.044495 258.222445,310.855079 250.453459,288.235006 L220.044801,199.697572 C211.876141,175.913815 220.563514,149.601493 241.287687,135.3571 L324.29515,78.3033893 C343.402918,65.1700034 368.628099,65.1700034 387.735867,78.3033893 Z" id="Polygon" fill="#60274B" opacity="0.0657784598" transform="translate(356.015509, 205.500962) rotate(-28.000000) translate(-356.015509, -205.500962) "></path>
            <g id="Group-17" transform="translate(71.000000, 113.000000)">
                <g id="Rectangle">
                    <use fill="black" fill-opacity="1" filter="url(#filter-2)" xlink:href="#path-1"></use>
                    <use fill="#FFFFFF" fill-rule="evenodd" xlink:href="#path-1"></use>
                </g>
                <text id="10-Marketing-Decrets" font-family="Avenir-Black, Avenir" font-size="19" font-weight="700" fill="#717295">
                    <tspan x="37" y="63">10 Marketing Decrets Revealed</tspan>
                </text>
                <text id="Speaker1-:" opacity="0.746465774" font-family="Avenir-Black, Avenir" font-size="16" font-weight="700" fill="#494949">
                    <tspan x="31" y="127">Speaker1 :</tspan>
                </text>
                <text id="Speaker1-:-Copy" opacity="0.746465774" font-family="Avenir-Black, Avenir" font-size="16" font-weight="700" fill="#494949">
                    <tspan x="31" y="245">Speaker1 :</tspan>
                </text>
                <text id="It’s-a-wonderful-fee" opacity="0.746465774" font-family="Avenir-Medium, Avenir" font-size="16" font-weight="400">
                    <tspan x="135" y="127" fill="#494949">It’s a </tspan>
                    <tspan x="172.936" y="127" font-family="Avenir-Heavy, Avenir" font-weight="600" fill="#7B48C2">wonderful</tspan>
                    <tspan x="249.08" y="127" fill="#494949"> feeling </tspan>
                    <tspan x="135" y="149" fill="#494949">once you’ve put together a </tspan>
                    <tspan x="135" y="171" fill="#494949">solid, engaging business </tspan>
                    <tspan x="135" y="193" fill="#494949">idea.</tspan>
                </text>
                <text id="You-can’t-get-enough" opacity="0.746465774" font-family="Avenir-Medium, Avenir" font-size="16" font-weight="400" fill="#494949">
                    <tspan x="135" y="245">You can’t get enough of </tspan>
                    <tspan x="135" y="267">developing and refining it, </tspan>
                    <tspan x="135" y="289">and you look forward to </tspan>
                    <tspan x="135" y="311">the day you can see your </tspan>
                    <tspan x="135" y="333">business in action.</tspan>
                </text>
                <rect id="Rectangle" fill="url(#linearGradient-3)" transform="translate(255.500000, 181.000000) scale(-1, 1) translate(-255.500000, -181.000000) " x="156" y="0" width="199" height="362"></rect>
                <g id="Rectangle" transform="translate(37.000000, 292.000000)">
                    <mask id="mask-5" fill="white">
                        <use xlink:href="#path-4"></use>
                    </mask>
                    <g id="Mask">
                        <use fill="black" fill-opacity="1" filter="url(#filter-6)" xlink:href="#path-4"></use>
                        <use fill="#FFFFFF" fill-rule="evenodd" xlink:href="#path-4"></use>
                    </g>
                    <rect fill="url(#linearGradient-7)" mask="url(#mask-5)" x="0" y="70" width="355" height="18"></rect>
                </g>
                <g id="play-button" transform="translate(130.000000, 301.000000)" fill="url(#linearGradient-8)" fill-rule="nonzero">
                    <path d="M26,0 C11.6407891,0 0,11.6405859 0,26 C0,40.3594141 11.6407891,52 26,52 C40.3592109,52 52,40.3594141 52,26 C52,11.6405859 40.3592109,0 26,0 Z M34.98625,27.3782031 L21.98625,35.5032031 C21.7232031,35.6674297 21.4241016,35.75 21.125,35.75 C20.8540313,35.75 20.5826563,35.6825625 20.3370781,35.5460625 C19.8205313,35.2596563 19.5,34.7160938 19.5,34.125 L19.5,17.875 C19.5,17.2839063 19.8205313,16.7403438 20.3370781,16.4539375 C20.853625,16.1659063 21.4852422,16.183375 21.98625,16.4967969 L34.98625,24.6217969 C35.4611563,24.919375 35.75,25.4398828 35.75,26 C35.75,26.5601172 35.4611563,27.0807266 34.98625,27.3782031 Z" id="Shape"></path>
                </g>
                <g id="fast-rewind-button" transform="translate(90.000000, 319.000000)" fill="#7B48C2" fill-rule="nonzero">
                    <path d="M0,7.99990922 C0,8.39876925 0.381272727,8.68419989 0.381272727,8.68419989 L10.5572727,15.7559653 C11.3378182,16.3016835 11.9781818,15.8999664 11.9781818,14.8636731 L11.9781818,1.13557387 C11.9781818,0.0995663732 11.3378182,-0.301579385 10.5572727,0.243567415 L0.381272727,7.31533284 C0.381272727,7.31533284 0,7.6010492 0,7.99990922 Z M12.3760909,7.99990922 C12.3760909,8.39876925 12.7568182,8.68419989 12.7568182,8.68419989 L22.5793636,15.756251 C23.3601818,16.3019693 24,15.8999664 24,14.8636731 L24,1.13557387 C24,0.0995663732 23.3601818,-0.301579385 22.5793636,0.243567415 L12.7568182,7.31533284 C12.7568182,7.31533284 12.3760909,7.6010492 12.3760909,7.99990922 Z" id="Shape"></path>
                </g>
                <g id="fast-rewind-button-copy" transform="translate(210.000000, 327.000000) scale(-1, 1) translate(-210.000000, -327.000000) translate(198.000000, 319.000000)" fill="#7B48C2" fill-rule="nonzero">
                    <path d="M0,7.99990922 C0,8.39876925 0.381272727,8.68419989 0.381272727,8.68419989 L10.5572727,15.7559653 C11.3378182,16.3016835 11.9781818,15.8999664 11.9781818,14.8636731 L11.9781818,1.13557387 C11.9781818,0.0995663732 11.3378182,-0.301579385 10.5572727,0.243567415 L0.381272727,7.31533284 C0.381272727,7.31533284 0,7.6010492 0,7.99990922 Z M12.3760909,7.99990922 C12.3760909,8.39876925 12.7568182,8.68419989 12.7568182,8.68419989 L22.5793636,15.756251 C23.3601818,16.3019693 24,15.8999664 24,14.8636731 L24,1.13557387 C24,0.0995663732 23.3601818,-0.301579385 22.5793636,0.243567415 L12.7568182,7.31533284 C12.7568182,7.31533284 12.3760909,7.6010492 12.3760909,7.99990922 Z" id="Shape"></path>
                </g>
                <rect id="Rectangle" fill="#D8D8D8" opacity="0.383045015" x="256" y="309" width="84" height="35" rx="5"></rect>
                <text id="20:35" opacity="0.733305432" font-family="Avenir-Black, Avenir" font-size="17" font-weight="700" fill="#161616">
                    <tspan x="275" y="333">20:35</tspan>
                </text>
                <g id="Group-9" filter="url(#filter-9)" transform="translate(222.000000, 181.000000)">
                    <rect id="Rectangle" fill="#7B48C2" x="0" y="0" width="204" height="56" rx="5"></rect>
                    <circle id="Oval" fill="#D8D8D8" opacity="0.0882161458" cx="33" cy="28" r="21"></circle>
                    <text id="Edit-Transcription" font-family="Avenir-Heavy, Avenir" font-size="13" font-weight="600" fill="#FFFFFF">
                        <tspan x="64.572581" y="31">Edit Transcription</tspan>
                    </text>
                    <g id="writing" transform="translate(23.000000, 17.000000)" fill="#FFFFFF">
                        <path d="M4.84791443,10 C4.37961129,10 4,10.4477 4,11 C4,11.5523 4.37961129,12 4.84791443,12 L10.1520856,12 C10.6203887,12 11,11.5523 11,11 C11,10.4477 10.6203887,10 10.1520856,10 L4.84791443,10 Z" id="Path"></path>
                        <path d="M6.51410115,20.28125 L3.54776799,20.28125 C2.56964835,20.28125 1.77388399,19.5102187 1.77388399,18.5625 L1.77388399,3.4375 C1.77388399,2.48978125 2.56964835,1.71875 3.54776799,1.71875 L14.452232,1.71875 C15.4303516,1.71875 16.226116,2.48978125 16.226116,3.4375 L16.226116,8.72265625 C16.226116,9.19728906 16.6231999,9.58203125 17.113058,9.58203125 C17.6029161,9.58203125 18,9.19728906 18,8.72265625 L18,3.4375 C18,1.5420625 16.4084713,0 14.452232,0 L3.54776799,0 C1.59152872,0 0,1.5420625 0,3.4375 L0,18.5625 C0,20.4579375 1.59152872,22 3.54776799,22 L6.51410115,22 C7.00395921,22 7.40104314,21.6152578 7.40104314,21.140625 C7.40104314,20.6659922 7.00395921,20.28125 6.51410115,20.28125 Z" id="Path"></path>
                        <path d="M19.2023496,12.731235 C18.1388689,11.756387 16.4084965,11.7563453 15.3456976,12.7305683 L10.3541024,17.2960272 C10.2480907,17.3929952 10.1699003,17.5124239 10.12635,17.6437705 L9.03927576,20.9243085 C8.94290151,21.2151711 9.0268653,21.5309945 9.25843626,21.7485581 C9.43190991,21.9115328 9.66757223,22 9.90928067,22 C9.99015321,22 10.0717986,21.9900823 10.1519438,21.9697053 L13.8216661,21.0379033 C13.9726828,20.9995661 14.1103343,20.9261004 14.2212556,20.8245902 L19.2023951,16.2671737 C20.2658759,15.2923258 20.2658759,13.7061663 19.2023496,12.731235 Z M13.10586,19.490081 L11.2596567,19.9588782 L11.7999435,18.3283393 L15.1679962,15.2478213 L16.454047,16.4266898 L13.10586,19.490081 Z M17.9172536,15.0880552 L17.7410978,15.2491964 L16.4552744,14.0705363 L16.6308392,13.9099368 C16.9853327,13.5849875 17.5621235,13.5849875 17.9166171,13.9099368 C18.2711107,14.2348861 18.2711107,14.7636059 17.9172536,15.0880552 Z" id="Shape" fill-rule="nonzero"></path>
                        <path d="M13.1056911,5 L3.89430894,5 C3.40038211,5 3,5.4477 3,6 C3,6.5523 3.40038211,7 3.89430894,7 L13.1056911,7 C13.5996179,7 14,6.5523 14,6 C14,5.4477 13.5996179,5 13.1056911,5 Z" id="Path"></path>
                    </g>
                </g>
            </g>
        </g>
    </g>
</svg>