<?xml version="1.0" encoding="UTF-8"?>
<svg width="285px" height="37px" viewBox="0 0 285 37" version="1.1" xmlns="http://www.w3.org/2000/svg" xmlns:xlink="http://www.w3.org/1999/xlink">
    <!-- Generator: Sketch 52.3 (67297) - http://www.bohemiancoding.com/sketch -->
    <title>Group 6</title>
    <desc>Created with Sketch.</desc>
    <g id="Page-1" stroke="none" stroke-width="1" fill="none" fill-rule="evenodd">
        <g id="Desktop-HD" transform="translate(-45.000000, -18.000000)" fill="#4DBDEB">
            <g id="Group-6" transform="translate(45.000000, 18.000000)">
                <path d="M48.7739998,32 L48.7739998,4.325 L62.7549998,4.325 C69.4789998,4.325 74.9729998,8.917 74.9729998,14.493 C74.9729998,17.609 73.2919998,20.397 70.6269998,22.283 L76.0389998,32 L66.4039998,32 L62.3039998,24.661 L57.5069998,24.661 L57.5069998,32 L48.7739998,32 Z M57.5069998,18.388 L62.8779998,18.388 C65.5429998,18.388 67.6749998,16.666 67.6749998,14.452 C67.6749998,12.238 65.5429998,10.434 62.8779998,10.434 L57.5069998,10.434 L57.5069998,18.388 Z M90.5409999,4.325 L94.4359999,4.325 L110.057,32 L101.324,32 L98.3719999,26.219 L86.6459999,26.219 L83.6939999,32 L75.0429999,32 L90.5409999,4.325 Z M95.9119999,20.725 L92.5089999,15.026 L89.1879999,20.725 L95.9119999,20.725 Z M108.528,4.325 L112.054,4.325 L127.798,17.404 L127.798,4.325 L136.531,4.325 L136.531,32 L132.923,32 L117.261,18.88 L117.261,32 L108.528,32 L108.528,4.325 Z M139.512,4.325 L148.245,4.325 L148.245,14.862 L160.996,4.325 L173.214,4.325 L156.445,18.224 L172.927,32 L160.463,32 L150.295,23.472 L148.245,25.235 L148.245,32 L139.512,32 L139.512,4.325 Z M171.726,4.325 L185.707,4.325 C192.431,4.325 197.925,8.917 197.925,14.493 C197.925,20.069 192.472,24.661 185.871,24.661 L180.459,24.661 L180.459,32 L171.726,32 L171.726,4.325 Z M185.83,18.388 C188.495,18.388 190.627,16.666 190.627,14.452 C190.627,12.238 188.495,10.434 185.83,10.434 L180.459,10.434 L180.459,18.388 L185.83,18.388 Z M230.672,18.183 C230.672,25.85 223.21,32 214.067,32 C204.883,32 197.503,25.85 197.503,18.183 C197.503,10.557 204.883,4.325 214.067,4.325 C223.21,4.325 230.672,10.557 230.672,18.183 Z M221.98,18.142 C221.98,14.493 218.454,11.541 214.067,11.541 C209.721,11.541 206.195,14.493 206.195,18.142 C206.195,21.791 209.721,24.784 214.067,24.784 C218.454,24.784 221.98,21.791 221.98,18.142 Z M232.464,4.325 L244.764,4.325 C253.948,4.325 261.369,10.516 261.369,18.142 C261.369,25.809 253.948,32 244.764,32 L232.464,32 L232.464,4.325 Z M244.805,24.825 C249.151,24.825 252.677,21.873 252.677,18.265 C252.677,14.698 249.151,11.746 244.805,11.746 L241.115,11.746 L241.115,24.825 L244.805,24.825 Z M273.001,32 C265.744,32 260.783,28.064 260.783,23.554 L269.639,23.554 C269.639,24.743 270.951,25.686 272.878,25.686 C274.641,25.686 276.035,24.825 276.035,23.554 C276.035,22.201 274.518,21.381 272.796,21.381 C266.359,21.381 260.824,17.568 260.824,12.853 C260.824,8.138 265.867,4.325 272.878,4.325 C279.52,4.325 284.891,8.097 284.891,12.812 L276.076,12.812 C276.076,11.664 274.723,10.68 272.878,10.68 C270.992,10.68 269.68,11.5 269.68,12.812 C269.68,14.083 270.992,14.985 272.878,14.985 C279.643,14.985 284.891,18.839 284.891,23.513 C284.891,28.228 279.643,32 273.001,32 Z" id="RANKPODS"></path>
                <g id="podcast">
                    <g id="microphone-black-shape">
                        <path d="M12.5002463,26 C14.5630972,26 16.3284405,25.2927999 17.7971793,23.879032 C19.2656717,22.4652642 20,20.7644582 20,18.778195 L20,7.22259552 C20,5.23633235 19.2662463,3.53623779 17.7971793,2.12175848 C16.3284405,0.707595387 14.5630972,0 12.5002463,0 C10.4376416,0 8.67205201,0.707595387 7.20323121,2.12175848 C5.73432831,3.53600063 5,5.23633235 5,7.22259552 L5,18.778195 C5,20.7643791 5.73465668,22.4652642 7.20323121,23.879032 C8.67180573,25.2927999 10.4376416,26 12.5002463,26 Z" id="Path"></path>
                        <path d="M25.5703701,14.4268627 C25.2853203,14.1423138 24.9460432,14 24.5548309,14 C24.164014,14 23.8255273,14.1423138 23.5392918,14.4268627 C23.2536887,14.7113329 23.1107686,15.0481973 23.1107686,15.4373771 L23.1107686,18.3125246 C23.1107686,21.0828052 22.1212364,23.4522628 20.1426465,25.4212908 C18.1646889,27.3903975 15.7835037,28.3749508 12.9998024,28.3749508 C10.2161801,28.3749508 7.83523202,27.3903975 5.85656302,25.4212908 C3.87813117,23.4528135 2.88899429,21.0828838 2.88899429,18.3125246 L2.88899429,15.4373771 C2.88899429,15.0481973 2.74599512,14.7113329 2.46023392,14.4268627 C2.17431463,14.1423138 1.83614412,14 1.44469477,14 C1.05324541,14 0.714679655,14.1423138 0.428918461,14.4268627 C0.142920121,14.7113329 0,15.0481973 0,15.4373771 L0,18.3125246 C0,21.6217724 1.1098443,24.5006174 3.32890052,26.9485875 C5.54803579,29.3966364 8.29015752,30.8003427 11.5553448,31.1594707 L11.5553448,34.1246165 L5.77775143,34.1246165 C5.38653922,34.1246165 5.04805251,34.2670876 4.76221227,34.5516365 C4.47629298,34.8359494 4.33329381,35.1729711 4.33329381,35.5623082 C4.33329381,35.951016 4.47629298,36.2886671 4.76221227,36.57298 C5.04805251,36.8572929 5.38653922,37 5.77775143,37 L20.2214581,37 C20.6125912,37 20.9515522,36.8573715 21.2369972,36.57298 C21.5232327,36.2887458 21.6663109,35.9510947 21.6663109,35.5623082 C21.6663109,35.1730498 21.5232327,34.8360281 21.2369972,34.5516365 C20.9516313,34.2670876 20.6126703,34.1246165 20.2214581,34.1246165 L14.4445762,34.1246165 L14.4445762,31.1594707 C17.7092101,30.8003427 20.4510947,29.3966364 22.6704671,26.9485875 C24.8898395,24.5006174 26,21.6217724 26,18.3125246 L26,15.4373771 C26,15.0482759 25.8566846,14.7116476 25.5703701,14.4268627 Z" id="Path"></path>
                    </g>
                </g>
            </g>
        </g>
    </g>
</svg>